<?xml version="1.0" encoding="utf-8"?>
<!-- Generator: Adobe Illustrator 25.2.1, SVG Export Plug-In . SVG Version: 6.00 Build 0)  -->
<svg version="1.1" id="a58e9fc1-c989-41af-ac87-aa86f7e8a63c"
	 xmlns="http://www.w3.org/2000/svg" xmlns:xlink="http://www.w3.org/1999/xlink" x="0px" y="0px" viewBox="0 0 765.6 667.7"
	 style="enable-background:new 0 0 765.6 667.7;" xml:space="preserve">
<style type="text/css">
	.st0{fill:#F1F1F1;}
	.st1{fill:#3F3D56;}
	.st2{fill:#FFFFFF;}
	.st3{fill:#536DFE;}
	.st4{fill:#9F616A;}
	.st5{fill:#2F2E41;}
	.st6{fill:#EDEBEB;}
	.st7{fill:#CBCBCB;}
</style>
<path class="st0" d="M713.5,667v-72.3C713.5,594.6,741.7,645.9,713.5,667z"/>
<path class="st0" d="M715.2,667l-53.3-48.9C661.9,618.1,718.8,632,715.2,667z"/>
<path class="st1" d="M270.2,128.8h-3V47.2C267.2,21.1,246.1,0,220,0l0,0H47.2C21.1,0,0,21.1,0,47.2v0v447.5
	c0,26.1,21.1,47.2,47.2,47.2H220c26.1,0,47.2-21.1,47.2-47.2V186.8h3V128.8z"/>
<path class="st2" d="M221.9,12.3h-22.6c3.5,8.6-0.6,18.3-9.2,21.8c-2,0.8-4.2,1.2-6.3,1.2h-99c-9.3,0-16.7-7.5-16.7-16.8
	c0-2.2,0.4-4.3,1.2-6.3H48.3C28.8,12.3,13,28.1,13,47.5c0,0,0,0,0,0v446.8c0,19.5,15.8,35.3,35.3,35.3h173.7
	c19.5,0,35.3-15.8,35.3-35.3l0,0l0,0V47.5C257.2,28.1,241.4,12.3,221.9,12.3C221.9,12.3,221.9,12.3,221.9,12.3z"/>
<circle id="b5dcbba4-f290-467d-a612-e64d8f6895fb" class="st3" cx="135.1" cy="261.2" r="84.4"/>
<path class="st2" d="M160.1,267l-21,21.6c-0.9,0.9-2.2,1.4-3.5,1.4h-0.1c-1.3,0-2.6-0.5-3.5-1.4l-21-21.6c-0.1-0.1-0.1-0.1-0.2-0.2
	c-1.7-1.9-1.6-4.8,0.2-6.5c2-1.9,5.1-1.9,7.1,0l12.4,13v-33.5c0.1-2.8,2.5-4.9,5.2-4.8c2.6,0.1,4.7,2.2,4.8,4.8v33.5l12.4-13
	c2-1.9,5.1-1.9,7.1,0c0.1,0.1,0.1,0.1,0.2,0.2C162.1,262.3,162,265.3,160.1,267z"/>
<polygon class="st4" points="590.3,653.3 578,653.3 572.2,606 590.3,606 "/>
<path class="st5" d="M593.4,665.2l-39.5,0v-0.5c0-8.5,6.9-15.4,15.4-15.4h0l24.1,0L593.4,665.2z"/>
<polygon class="st4" points="497.1,652.9 485.3,649.7 491.9,602.5 509.3,607.2 "/>
<path class="st5" d="M497.1,665.2L458.9,655l0.1-0.5c2.2-8.2,10.6-13.1,18.8-10.9l0,0l23.3,6.2L497.1,665.2z"/>
<polygon class="st5" points="597.3,388.3 607.6,400.2 594.3,642.6 565.9,642.6 551.6,456.1 507.3,647.6 477.8,640.4 504.6,397.1 "/>
<path class="st6" d="M511.5,231.7l28.2-14.2l43.4,0.8l37.4,19.1l-21.3,106.2l9.2,55.4h0c-35.5,9.1-72.7,9.4-108.3,0.9l-0.3-0.1
	c0,0,21.1-74.9,12.1-97.8L511.5,231.7z"/>
<path class="st4" d="M593.2,175.1c-0.1-17.7-14.4-31.9-32.1-31.9s-31.9,14.4-31.9,32.1c0.1,17.7,14.4,31.9,32.1,31.9
	c17.6-0.1,31.8-14.3,31.9-31.9C593.2,175.3,593.2,175.2,593.2,175.1z"/>
<path class="st5" d="M546.8,156.8c1.7-1.6,3.8-2.4,6.1-2.5c3.4-0.1,8.5,1.1,10.7,3.9c1.8,2.2,1.8,5.3,1.8,8.1l0,7.8
	c0,2.3,0,4.7,1.1,6.8s3.5,3.6,5.7,2.9c2.6-0.8,3.8-4.3,6.5-4.9c2-0.5,4.1,1,5,2.9c0.7,1.9,1,4,0.7,6.1c-0.3,4.1-6.1,5.7-7,9.8
	c-0.5,2.3-2.2,7,0,6c10-1,14.4-6.8,19-12.3l10.3-12.4c1.2-1.2,2.1-2.7,2.7-4.3c0.3-1.1,0.3-2.3,0.3-3.4c-0.1-3.1-0.1-6.2-0.3-9.2
	c-0.1-2.7-0.8-6.1-3.4-6.6c-1.4-0.3-3.2,0.2-3.9-1c-0.3-0.6-0.3-1.3-0.1-1.9c0.6-3.1,1.6-6.3,0.6-9.3c-1.5-4.5-6.8-6.3-11.4-7.1
	s-9.9-1.6-12.8-5.3c-0.8-1.2-1.6-2.4-2.5-3.6c-1.3-1.2-3-2-4.8-2.4c-5.8-1.5-11.9-0.9-17.3,1.5c-2.2,1-4.5,2.4-7,2.3
	c-2.6-0.2-4.7-2-7.3-2.4c-4.1-0.7-8,2.4-10,6c-2.5,4.5-2.7,10.6,0.8,14.4c1.8,1.9,4.4,3.1,5.1,5.6c0.3,1,0.2,2.1,0.5,3.1
	c0.6,2.1,2.4,3.6,4.5,3.9C542.9,159.6,545,158.4,546.8,156.8z"/>
<path class="st4" d="M507.6,309.2c2.3,5.9,8.9,8.8,14.8,6.5c0.6-0.2,1.2-0.5,1.8-0.9l57.4,30.3l1.9-14l-55.7-32.9
	c-3.7-5.2-10.9-6.4-16.1-2.8C507.3,298.6,505.6,304.2,507.6,309.2L507.6,309.2z"/>
<path class="st4" d="M584,311.6c-3.5,5.3-10.7,6.6-15.9,3.1c-0.6-0.4-1.1-0.8-1.6-1.3l-62.6,17l0.5-17.7l62.3-16.2
	c4.7-4.3,12-3.9,16.3,0.8C586.6,301.3,587,307.2,584,311.6L584,311.6z"/>
<path class="st6" d="M608.3,238.2l12.2-0.8c0,0,14.3,18.9,6.4,39.3c0,0,1.4,73.5-30.3,70.5s-41.6-3-41.6-3l9.5-26.5l21.3-6.6
	c0,0-6.6-28.9,5.8-40.9L608.3,238.2z"/>
<path class="st6" d="M520.2,237.6l-1.7-8.8c0,0-25.4-0.6-30.5,38c0,0-22.9,57.7-0.5,65.1s47.1,0,47.1,0l-1.9-25.4l-24.7-5
	c0,0,12.7-16.5,5.8-30.8L520.2,237.6z"/>
<path class="st7" d="M764.6,667.7h-381c-0.6,0-1-0.4-1-1s0.4-1,1-1h381c0.6,0,1,0.4,1,1S765.2,667.7,764.6,667.7z"/>
</svg>
