<?xml version="1.0" encoding="utf-8"?>
<!-- Generator: Adobe Illustrator 25.2.1, SVG Export Plug-In . SVG Version: 6.00 Build 0)  -->
<svg version="1.1" id="eda1a55b-53a8-43b5-9383-13f99c95cdad"
	 xmlns="http://www.w3.org/2000/svg" xmlns:xlink="http://www.w3.org/1999/xlink" x="0px" y="0px" viewBox="0 0 728.3 598.9"
	 style="enable-background:new 0 0 728.3 598.9;" xml:space="preserve">
<style type="text/css">
	.st0{fill:#E4E4E4;}
	.st1{fill:#536DFE;}
	.st2{fill:#FFFFFF;}
	.st3{fill:#3F3D56;}
	.st4{fill:#E6E6E6;}
	.st5{fill:#CCCCCC;}
	.st6{fill:#CACACA;}
</style>
<path class="st0" d="M473.5,447.6c-99.8,0-181-81.2-181-181s81.2-181,181-181c10.6,0,21.1,0.9,31.5,2.7c0.5,0.1,0.9,0.6,0.8,1.2
	c-0.1,0.5-0.6,0.9-1.2,0.8c0,0,0,0,0,0c-10.3-1.8-20.7-2.7-31.1-2.7c-98.7,0-179,80.3-179,179s80.3,179,179,179s179-80.3,179-179
	c0-44.6-16.6-87.6-46.7-120.6c-0.4-0.4-0.3-1,0.1-1.4c0.4-0.4,1-0.3,1.4,0.1c30.4,33.3,47.3,76.8,47.2,121.9
	C654.5,366.4,573.3,447.6,473.5,447.6z"/>
<circle class="st1" cx="553.3" cy="111.9" r="35.8"/>
<path class="st2" d="M548.4,130.5c-1.3,0-2.4-0.6-3.2-1.6l-9.8-13c-1.3-1.8-1-4.3,0.8-5.6s4.3-1,5.6,0.8l6.4,8.5L564.6,95
	c1.2-1.8,3.7-2.3,5.5-1.1c1.8,1.2,2.3,3.7,1.1,5.5l-19.5,29.3c-0.7,1.1-1.9,1.7-3.2,1.8C548.5,130.5,548.5,130.5,548.4,130.5z"/>
<path class="st3" d="M468.8,238.5L413.6,84.9l1.4-0.5l-10.2-28.3l-1.4,0.5l-17-47.2c-2.7-7.4-10.8-11.3-18.2-8.6c0,0,0,0,0,0
	l-99.8,35.9c-7.4,2.7-11.3,10.8-8.6,18.2c0,0,0,0,0,0l11.8,32.9l-2.2,0.9l7.5,19.6l1.8-0.7l1.6,4.4l-1.9,0.7l7.5,19.6l1.4-0.6
	L342.2,284c2.6,7.4,10.8,11.3,18.2,8.6c0,0,0,0,0,0l99.8-35.9C467.7,254.1,471.5,245.9,468.8,238.5z"/>
<path class="st2" d="M355.2,287.6c-2.9,0-5.4-1.8-6.4-4.5L265.5,51.6c-1.3-3.6,0.6-7.5,4.1-8.7l21.2-7.6l0,0.7
	c-0.2,4.3,3.2,8,7.5,8.2c1,0,2-0.1,3-0.5l47.1-16.9c2.3-1.1,4-3.2,4.5-5.6c0.5-2.4-0.2-5-1.9-6.8l-0.5-0.6l21.9-7.9
	c3.6-1.3,7.5,0.6,8.7,4.1l79.4,220.8c3.4,9.4-1.5,19.8-10.9,23.2l-92.3,33.2C356.7,287.4,356,287.6,355.2,287.6z"/>
<circle class="st1" cx="347" cy="96.4" r="27"/>
<path class="st4" d="M413.9,135.6l-93.5,33.6c-1.2,0.4-2.6-0.2-3-1.4c-0.4-1.2,0.2-2.6,1.4-3c0,0,0,0,0,0l93.5-33.6
	c1.2-0.4,2.6,0.2,3,1.4C415.8,133.9,415.2,135.2,413.9,135.6z"/>
<path class="st4" d="M386.2,157L355.4,168c-1.2,0.4-2.6-0.2-3-1.4c-0.4-1.2,0.2-2.6,1.4-3c0,0,0,0,0,0l30.8-11.1
	c1.2-0.4,2.6,0.2,3,1.4C388,155.2,387.4,156.5,386.2,157z"/>
<path class="st4" d="M393.5,177.3l-30.8,11.1c-1.2,0.4-2.6-0.2-3-1.4c-0.4-1.2,0.2-2.6,1.4-3c0,0,0,0,0,0l30.8-11.1
	c1.2-0.4,2.6,0.2,3,1.4C395.3,175.5,394.7,176.9,393.5,177.3L393.5,177.3z"/>
<path class="st4" d="M397.2,187.7l-30.8,11.1c-1.2,0.4-2.6-0.2-3-1.4c-0.4-1.2,0.2-2.6,1.4-3c0,0,0,0,0,0l30.8-11.1
	c1.2-0.4,2.6,0.2,3,1.4C399.1,185.9,398.5,187.3,397.2,187.7C397.2,187.7,397.2,187.7,397.2,187.7L397.2,187.7z"/>
<path class="st4" d="M407,160.8l-65.3,23.5c-1.2,0.4-2.6-0.2-3-1.4c-0.4-1.2,0.2-2.6,1.4-3c0,0,0,0,0,0l65.3-23.5
	c1.2-0.4,2.6,0.2,3,1.4C408.9,159,408.3,160.3,407,160.8C407,160.8,407,160.8,407,160.8z"/>
<path class="st1" d="M393.9,213l-11.2,4c-2.1,0.7-4.4-0.3-5.1-2.4c-0.7-2.1,0.3-4.4,2.4-5.1l11.2-4c2.1-0.7,4.4,0.3,5.1,2.4
	C397,210,396,212.3,393.9,213z"/>
<path class="st2" d="M635.8,467.4c1.4-5.4,4.8-10.1,9.5-13.1c0.5-0.3,0-1-0.5-0.7c-4.9,3.1-8.4,8-9.9,13.7
	C634.8,467.8,635.6,467.9,635.8,467.4L635.8,467.4z"/>
<path class="st3" d="M725.7,333.1l-28.9,48.7l1.1,0.6l-9.8,18.6l-2-1.1l-6.4,10.8l1.6,0.9l-10.5,18.2l-1.8-1l-94.4,158.9
	c-5.2,8.7-16.4,11.5-25,6.4L373.9,489.7c-8.7-5.2-11.5-16.4-6.4-25l151.3-254.6c5.2-8.7,16.4-11.5,25-6.4l175.5,104.3
	C728,313.2,730.8,324.4,725.7,333.1z"/>
<path class="st2" d="M555.7,584.2L379.5,479.5c-2.7-1.6-3.5-5-2-7.7l152.3-256.3c1.6-2.7,5-3.5,7.7-2l176.2,104.7
	c2.7,1.6,3.5,5,2,7.7L563.4,582.3C561.8,584.9,558.3,585.8,555.7,584.2z"/>
<path class="st4" d="M618.4,445.5l-147.1-87.4c-1.9-1.1-2.6-3.6-1.4-5.6c1.1-1.9,3.6-2.6,5.6-1.4c0,0,0,0,0,0l147.1,87.4
	c1.9,1.1,2.6,3.6,1.4,5.6C622.9,446,620.4,446.6,618.4,445.5C618.4,445.5,618.4,445.5,618.4,445.5z"/>
<path class="st4" d="M559.7,431.9l-48.4-28.7c-1.9-1.1-2.6-3.6-1.4-5.6s3.6-2.6,5.6-1.4c0,0,0,0,0,0l48.4,28.7
	c1.9,1.1,2.6,3.6,1.4,5.6C564.1,432.4,561.6,433.1,559.7,431.9z"/>
<path class="st4" d="M540.7,463.9l-48.4-28.7c-1.9-1.1-2.6-3.6-1.4-5.6c1.1-1.9,3.6-2.6,5.6-1.4l48.4,28.7c1.9,1.1,2.6,3.6,1.4,5.6
	C545.1,464.4,542.6,465.1,540.7,463.9C540.7,463.9,540.7,463.9,540.7,463.9z"/>
<path class="st4" d="M530.9,480.3l-48.4-28.7c-1.9-1.1-2.6-3.6-1.4-5.6c1.1-1.9,3.6-2.6,5.6-1.4l0,0l48.4,28.7
	c1.9,1.1,2.6,3.6,1.4,5.6C535.4,480.8,532.9,481.5,530.9,480.3C531,480.3,530.9,480.3,530.9,480.3L530.9,480.3z"/>
<path class="st4" d="M577.5,463.8l-102.6-61c-1.9-1.2-2.6-3.7-1.4-5.6c1.1-1.9,3.6-2.5,5.6-1.4l102.6,61c1.9,1.1,2.6,3.6,1.4,5.6
	C581.9,464.3,579.4,465,577.5,463.8C577.5,463.8,577.5,463.8,577.5,463.8z"/>
<path class="st1" d="M557.9,541.8l-17.6-10.4c-3.3-2-4.4-6.2-2.4-9.5c2-3.3,6.2-4.4,9.5-2.4l17.6,10.4c3.3,2,4.4,6.2,2.4,9.5
	S561.2,543.7,557.9,541.8L557.9,541.8z"/>
<circle class="st1" cx="590.7" cy="336.3" r="36"/>
<path class="st4" d="M0,475v34.8c0,6.1,4.9,11,11,11c0,0,0,0,0,0h179.8v68.7h-2.4c-0.8,0-1.4,0.6-1.4,1.4c0,0,0,0,0,0v4.8
	c0,0.8,0.6,1.4,1.4,1.4c0,0,0,0,0,0H300c0.8,0,1.4-0.6,1.4-1.4c0,0,0,0,0,0v-4.8c0-0.8-0.6-1.4-1.4-1.4c0,0,0,0,0,0h-2.4v-68.7
	h179.8c6.1,0,11-4.9,11-11v0V475L0,475z"/>
<path class="st5" d="M478.4,521.3H9.7c-5.2,0-9.3-4.1-9.3-9.3v-65.9h487.2V512C487.6,517.1,483.5,521.3,478.4,521.3z"/>
<path class="st3" d="M0.4,482.6h487.2v-282c0-4.4-3.6-8-8-8H8.4c-4.4,0-8,3.6-8,8V482.6z"/>
<rect x="15.5" y="203.6" class="st2" width="457.1" height="259.5"/>
<path class="st4" d="M406.4,290.4H190c-2.8,0-5.1-2.3-5.1-5.1c0-2.8,2.3-5.1,5.1-5.1h216.5c2.8,0,5.1,2.3,5.1,5.1
	C411.6,288.1,409.3,290.4,406.4,290.4z"/>
<path class="st4" d="M333.8,313.6h-71.2c-2.8,0-5.1-2.3-5.1-5.1s2.3-5.1,5.1-5.1h71.2c2.8,0,5.1,2.3,5.1,5.1
	S336.6,313.6,333.8,313.6z"/>
<path class="st4" d="M333.8,360.7h-71.2c-2.8,0-5.1-2.3-5.1-5.1s2.3-5.1,5.1-5.1h71.2c2.8,0,5.1,2.3,5.1,5.1
	S336.6,360.7,333.8,360.7z"/>
<path class="st4" d="M333.8,384.9h-71.2c-2.8,0-5.1-2.3-5.2-5.1s2.3-5.1,5.1-5.2c0,0,0,0,0,0h71.2c2.8,0,5.1,2.3,5.2,5.1
	S336.6,384.9,333.8,384.9C333.8,384.9,333.8,384.9,333.8,384.9z"/>
<path class="st4" d="M373.7,336.8H222.7c-2.8,0-5.1-2.3-5.1-5.1c0-2.8,2.3-5.1,5.1-5.1h151.1c2.8,0,5.1,2.3,5.1,5.1
	C378.9,334.5,376.6,336.8,373.7,336.8z"/>
<path class="st1" d="M402.8,434.3H377c-4.8,0-8.7-3.9-8.7-8.7s3.9-8.7,8.7-8.7l0,0h25.9c4.8,0,8.7,3.9,8.7,8.7
	S407.6,434.3,402.8,434.3z"/>
<circle class="st1" cx="121.9" cy="325.8" r="45"/>
<path class="st6" d="M648.5,598.9H1.2c-0.7,0-1.2-0.5-1.2-1.2c0-0.7,0.5-1.2,1.2-1.2h647.3c0.7,0,1.2,0.5,1.2,1.2
	C649.7,598.4,649.1,598.9,648.5,598.9z"/>
</svg>
