<?xml version="1.0" encoding="utf-8"?>
<!-- Generator: Adobe Illustrator 25.2.1, SVG Export Plug-In . SVG Version: 6.00 Build 0)  -->
<svg version="1.1" id="a1abe23f-2807-4f9c-a5d8-6f58febb0620"
	 xmlns="http://www.w3.org/2000/svg" xmlns:xlink="http://www.w3.org/1999/xlink" x="0px" y="0px" viewBox="0 0 859.5 522.4"
	 style="enable-background:new 0 0 859.5 522.4;" xml:space="preserve">
<style type="text/css">
	.st0{fill:#3F3D56;}
	.st1{fill:#A0616A;}
	.st2{fill:#2F2E41;}
	.st3{fill:#536DFE;}
	.st4{fill:#E6E6E6;}
	.st5{fill:#FFFFFF;}
	.st6{fill:#CCCCCC;}
</style>
<polygon class="st0" points="859.1,522.4 0,522.4 0,520.2 859.5,520.2 "/>
<path class="st1" d="M750.1,175.4l-21.7,43l-65,29.6c-6.9,11.7-29,12.6-30.6,5c-1.8-8.5,26.8-22.2,26.8-22.2L714,194l4.8-31.7
	L750.1,175.4z"/>
<polygon class="st1" points="747.6,464.2 751.6,496.3 728.3,497.9 725.9,464.2 "/>
<path class="st2" d="M744.4,491.5c2.1-2.2,4-4.5,5.7-7c3.3-4.6,6.3,19,6.3,19s3.2,9.6,2.4,14.4s-19.2,4.8-22.5,4s-19.2,0-19.2,0
	h-24.1c-20.8-9.6,0-16,0-16c6.4-0.8,28.1-20.8,28.1-20.8l4.8-8.8c3.2-0.8,6.4,11.2,6.4,11.2L744.4,491.5z"/>
<polygon class="st1" points="807.7,464.6 811.7,496.7 788.5,498.3 786.1,464.6 "/>
<path class="st2" d="M804.5,491.9c2.1-2.2,4-4.5,5.7-7c3.3-4.6,6.3,19,6.3,19s3.2,8.8,2.4,13.6s-19.2,4.8-22.5,4s-19.2,0.8-19.2,0.8
	h-24.1c-20.8-9.6,0-16,0-16c6.4-0.8,28.1-20.8,28.1-20.8l4.8-8.8c3.2-0.8,6.4,11.2,6.4,11.2L804.5,491.9z"/>
<path class="st2" d="M781.3,257.7c3.2,4,1.6,17.6,1.6,17.6s5.6,44.1,3.2,48.1s1.6,7.2,4,12.8s4.8,19.2,4.8,19.2
	c13.6,11.2,12.8,62.5,12.8,62.5l4.8,45.7c-1.6,4.8-24.1,5.6-27.3,4.8s-12.8-73-12.8-73l-21.6-40.9c0,0,1.6,109,1.6,113.9
	s-21.6,2.4-26.5,2.4s-4.8-80.2-4.8-80.2l-4.8-20.8l-25.7-95.4v-11.2l4-5.6C694.7,257.7,778.1,253.7,781.3,257.7z"/>
<circle class="st1" cx="746" cy="50.9" r="24.9"/>
<path class="st1" d="M733.5,62.5c5,11.2,2.1,26.9-8,44.1l40.9-19.2l-6.4-5.6l1.6-16L733.5,62.5z"/>
<path class="st3" d="M733.5,88.2c-5.4,3.2-8.6,9-10.4,15c-3.4,11-5.5,22.4-6.1,33.9l-1.9,34.5L691.1,263
	c20.8,17.6,32.9,13.6,60.9-0.8s31.3,4.8,31.3,4.8s2.4-0.8,0-3.2s0,0,2.4-2.4s0,0-0.8-2.4s0-0.8,0.8-1.6s-3.2-8-3.2-8l6.4-60.1l8-85
	c-9.6-12-36.9-22.5-36.9-22.5l-24.9,17.6c-8,3.2-1.6-9.6-1.6-9.6L733.5,88.2z"/>
<path class="st1" d="M810.1,155.1l3.2,48.1l-40.9,58.5c0,13.6-7.2,16.8-7.2,16.8c-2.7-4.4-5.1-8.9-7.2-13.6c-4-8.8,2.4-16,2.4-16
	l28.1-59.3l-12-29.7L810.1,155.1z"/>
<path class="st3" d="M796.5,104.6c13.6,4.8,16,56.9,16,56.9c-16-8.8-35.3,5.6-35.3,5.6s-4-13.6-8.8-31.3c-3-10.1-0.5-21,6.4-28.9
	C774.8,107,782.9,99.8,796.5,104.6z"/>
<path class="st2" d="M768.8,58.5c-3.2-2.5-7.5,2.1-7.5,2.1l-2.5-22.8c0,0-15.8,1.9-25.9-0.6s-11.7,9.2-11.7,9.2
	c-0.5-4.7-0.6-9.5-0.3-14.2c0.6-5.7,8.9-11.4,23.4-15.2s22.2,12.7,22.2,12.7C776.5,34.6,772,61,768.8,58.5z"/>
<rect x="363.5" y="190" class="st4" width="304" height="60"/>
<rect x="363.5" y="95.1" class="st4" width="304" height="60"/>
<rect x="363.5" y="0" class="st4" width="304" height="60"/>
<path class="st5" d="M370,53.5h291V6.5H370V53.5z"/>
<path class="st5" d="M370,148.9h291v-47.1H370V148.9z"/>
<path class="st5" d="M370,243.5h291v-47.1H370V243.5z"/>
<circle class="st3" cx="395.4" cy="29.6" r="17.9"/>
<rect x="438.3" y="22.6" class="st3" width="176.9" height="3.9"/>
<rect x="438.3" y="32.7" class="st3" width="176.9" height="3.9"/>
<circle class="st6" cx="395.4" cy="125.5" r="17.9"/>
<rect x="438.3" y="118.5" class="st6" width="176.9" height="3.9"/>
<rect x="438.3" y="128.7" class="st6" width="176.9" height="3.9"/>
<circle class="st6" cx="395.4" cy="220.4" r="17.9"/>
<rect x="438.3" y="213.4" class="st6" width="176.9" height="3.9"/>
<rect x="438.3" y="223.5" class="st6" width="176.9" height="3.9"/>
<path class="st1" d="M139.4,173.1c0,0-4.2,26.3,13.2,23.9c0,0,68.9-15.6,72.4-12s25.9,4.8,24.8-10.3c-1.2-15.2-23.6-6.4-23.6-6.4
	s-34.7,4.8-41.9,1.2s-27.5-2.4-27.5-2.4L139.4,173.1z"/>
<path class="st2" d="M191.9,259l-9.5,90.6c0,0-3,35.9-12,43.7c0,0,0,11.4-3,15l-4.2,47.3c0,0,6,17.4,5.4,20.4s2.4,12.6,1.8,13.8
	s-28.7,0-28.7,0l6-96.4l18.6-134.1L191.9,259z"/>
<path class="st2" d="M139.5,484.8c0,0-12.6,31.7-6,35.5s75.3,1.1,75.3,1.1s11.5-7.1-1.6-12c0,0-10.9-0.5-18-4.9
	s-15.3-12.6-15.3-12.6s-0.5-12-4.9-9.3c-2.6,1.7-4.4,4.5-4.9,7.6L139.5,484.8z"/>
<path class="st2" d="M120.1,480.5c0,0-13.8,34.7-6.6,38.9s82.6,1.2,82.6,1.2s12.6-7.8-1.8-13.2c0,0-12-0.6-19.8-5.4
	s-16.8-13.8-16.8-13.8s-0.6-13.2-5.4-10.2c-2.9,1.9-4.9,5-5.4,8.4L120.1,480.5z"/>
<path class="st2" d="M175.8,257.8c0,0-6.6,61.7-9.6,74.8c-1.9,8.7-3.1,17.5-3.6,26.3c0,0-0.6,19.2-6,24.5c-3.2,3.2-4.9,7.5-4.8,12
	c0,0-5.4,60.5-2.4,67.7s7.1,16.5,4.1,21.3s-37,1.4-37-2.1s0-6.6-1.8-8.4s0-13.2,0-13.2s-7.2-53.3-0.6-68.9s9.6-58.1,9.6-58.1
	s-4.8-48.5-10.8-56.3s1.2-35.3,1.2-35.3L175.8,257.8z"/>
<path class="st1" d="M158.9,66.3c0.7,1.6,2.4,2.5,3.9,3.3c8.8,4.8,16.1,11.9,23.4,18.8c-1.8-6.1-1.4-12.7,1.1-18.6
	c0.9-2,2-4.2,1.4-6.3c-0.6-1.5-1.7-2.8-3-3.6c-3-2.3-6.1-4.4-9.3-6.3c-2.2-1.3-6.9-4.9-9.4-4.5c-0.1,3.5-0.2,6.6-1.7,9.8
	C164.9,59.7,159.2,66.9,158.9,66.3z"/>
<circle class="st1" cx="189.6" cy="49.4" r="24.5"/>
<path class="st4" d="M190.8,107.5c0,0,4.2-21-7.8-28.1s-25.7-15.6-25.7-15.6s-4.2-0.6-6,8.4c0,0-34.1,6.6-37.7,38.9
	s2.4,79.6,2.4,79.6s-5.4,41.3-12,63.5c0,0-5.4,4.8,18.6-2.4s65.9,20.4,65.9,20.4s4.2-4.2,4.2-7.2s9-94,10.8-102.4
	S196.1,108.7,190.8,107.5z"/>
<path class="st0" d="M183.8,52c1.5-0.8,3.1-1.3,4.8-1.3c1.7,0,3.3-0.5,4.8-1.4c2.3-1.8,2.5-5.2,4.2-7.6c2.5-3.4,7.4-3.9,11.6-3.7
	c2.6,0.1,5.4,0.3,7.6-1.1c2.2-1.4,3.2-4.1,4-6.7c0.9-3,1.5-6.7-0.7-8.9c-1.5-1.6-4-1.9-5.7-3.2c-0.9-0.7-13.1-3.7-24.6-6.4
	c-11.8-2.7-23.8,3.8-27.9,15.1c-2.6,7.3-4.9,14.1-4.7,15.6c1.1,7.1,7.4,12.7,7.8,19.8c0.8-4,3.6-7.3,7.4-8.8c0.5-0.2,1-0.3,1.5-0.2
	c0.6,0.2,1,0.8,1.4,1.3c1,1.4,4.2,3.4,6.1,2.5C182.9,56.1,181.7,53.4,183.8,52z"/>
<path class="st0" d="M195,181c-1.1,1-1.1,2.8-0.1,3.8l17.3,17.9c1,1.1,2.8,1.1,3.9,0.1c0,0,0,0,0,0l52.7-52.4c1.1-1.1,1.1-2.8,0-3.9
	c-0.1-0.1-0.3-0.3-0.4-0.4l-20.7-13.5c-1.1-0.7-2.5-0.6-3.4,0.3L195,181z"/>
<path class="st3" d="M269.1,146.9c-0.1,0.2-0.2,0.3-0.4,0.4l-52.6,53.4c-1.1,1.1-2.8,1.1-3.9,0c0,0,0,0,0,0l-17.6-18.6
	c-0.1-0.1-0.2-0.3-0.3-0.4c-0.6,1-0.4,2.4,0.6,3.1l17.3,17.9c1,1.1,2.8,1.1,3.9,0.1c0,0,0,0,0,0l52.7-52.4
	C269.7,149.4,269.8,148,269.1,146.9L269.1,146.9z"/>
<path class="st5" d="M264.2,147.6l-2.1-1.4c0.6,1,0.2,2.2-0.8,2.8c-0.7,0.4-1.5,0.3-2.2-0.1l-13.9-9.5c-0.9-0.6-1.2-1.9-0.5-2.8
	c0.3-0.4,0.6-0.7,1.1-0.8l-1.1-0.7c-0.3-0.2-0.7-0.1-0.9,0.1L197.1,181c-0.3,0.3-0.3,0.8,0,1.1c0,0,0,0,0,0l16.9,16.5
	c0.3,0.3,0.8,0.3,1,0l49.2-49.8c0.3-0.3,0.3-0.8,0-1.1C264.3,147.6,264.3,147.6,264.2,147.6z"/>
<polygon class="st4" points="210.4,170.8 224.7,184.3 258.8,150.7 241.5,139.5 "/>
<path class="st0" d="M257.4,159c0.2,0.2,0.5,0.2,0.7,0l3-3c0.2-0.2,0.2-0.5,0-0.7c-0.2-0.2-0.5-0.2-0.7,0l-3,3
	C257.2,158.5,257.2,158.8,257.4,159z"/>
<path class="st0" d="M252.4,164c0.2,0.2,0.5,0.2,0.7,0l3-3c0.2-0.2,0.2-0.5,0-0.7c-0.2-0.2-0.5-0.2-0.7,0l-3,3
	C252.2,163.5,252.2,163.8,252.4,164z"/>
<circle class="st3" cx="210.7" cy="182.4" r="3.3"/>
<path class="st1" d="M121.9,163.8c0,0-4.2,26.3,13.2,23.9c0,0,68.9-15.6,72.4-12s25.9,4.8,24.8-10.3c-1.2-15.2-23.6-6.4-23.6-6.4
	s-34.7,4.8-41.9,1.2s-27.5-2.4-27.5-2.4L121.9,163.8z"/>
<path class="st4" d="M146.5,80.6c0,0-26.9,3-26.9,41.9v49.7l32.9-13.8c0,0,13.8-32.3,12.6-41.3S164.4,81.8,146.5,80.6z"/>
</svg>
